<svg width="120" height="13" viewBox="0 0 120 13" fill="none" xmlns="http://www.w3.org/2000/svg">
<path d="M10.4716 4.73864C10.1477 2.05114 8.11364 0.505682 5.42045 0.505682C2.34659 0.505682 0 2.67614 0 6.48295C0 10.2784 2.30682 12.4602 5.42045 12.4602C8.40341 12.4602 10.2045 10.4773 10.4716 8.33523L7.98295 8.32386C7.75 9.56818 6.77273 10.2841 5.46023 10.2841C3.69318 10.2841 2.49432 8.97159 2.49432 6.48295C2.49432 4.0625 3.67614 2.68182 5.47727 2.68182C6.82386 2.68182 7.79545 3.46023 7.98295 4.73864H10.4716Z" fill="#6B4DFF"/>
<path d="M15.2108 0.664773H12.7903V12.3011H15.2108V0.664773Z" fill="#6B4DFF"/>
<path d="M17.7497 12.3011H20.1702V3.57386H17.7497V12.3011ZM18.9656 2.44886C19.6872 2.44886 20.2781 1.89773 20.2781 1.22159C20.2781 0.551137 19.6872 0 18.9656 0C18.2497 0 17.6588 0.551137 17.6588 1.22159C17.6588 1.89773 18.2497 2.44886 18.9656 2.44886Z" fill="#6B4DFF"/>
<path d="M26.6864 12.4716C28.8455 12.4716 30.3 11.4205 30.6409 9.80114L28.4023 9.65341C28.158 10.3182 27.533 10.6648 26.7261 10.6648C25.5159 10.6648 24.7489 9.86364 24.7489 8.5625V8.55682H30.692V7.89205C30.692 4.92614 28.8966 3.46023 26.5898 3.46023C24.0216 3.46023 22.3568 5.28409 22.3568 7.97727C22.3568 10.7443 23.9989 12.4716 26.6864 12.4716ZM24.7489 7.05682C24.8 6.0625 25.5557 5.26705 26.6295 5.26705C27.6807 5.26705 28.408 6.01705 28.4136 7.05682H24.7489Z" fill="#6B4DFF"/>
<path d="M35.292 7.25568C35.2977 6.13068 35.9682 5.47159 36.9455 5.47159C37.917 5.47159 38.5023 6.10795 38.4966 7.17614V12.3011H40.917V6.74432C40.917 4.71023 39.7239 3.46023 37.9057 3.46023C36.6102 3.46023 35.6727 4.09659 35.2807 5.11364H35.1784V3.57386H32.8716V12.3011H35.292V7.25568Z" fill="#6B4DFF"/>
<path d="M48.0668 3.57386H46.4247V1.48295H44.0043V3.57386H42.8111V5.39205H44.0043V9.9375C43.9929 11.6477 45.1577 12.4943 46.9133 12.4205C47.5383 12.3977 47.9815 12.2727 48.2258 12.1932L47.8452 10.392C47.7258 10.4148 47.4702 10.4716 47.2429 10.4716C46.7599 10.4716 46.4247 10.2898 46.4247 9.61932V5.39205H48.0668V3.57386Z" fill="#6B4DFF"/>
<path d="M57.3798 6.0625C57.1639 4.45455 55.8685 3.46023 53.6639 3.46023C51.431 3.46023 49.9594 4.49432 49.9651 6.17614C49.9594 7.48295 50.7832 8.32955 52.4878 8.67045L53.9991 8.97159C54.7605 9.125 55.1071 9.40341 55.1185 9.84091C55.1071 10.358 54.5446 10.7273 53.698 10.7273C52.8344 10.7273 52.2605 10.358 52.1128 9.64773L49.7321 9.77273C49.9594 11.4432 51.3798 12.4716 53.6923 12.4716C55.9537 12.4716 57.573 11.3182 57.5787 9.59659C57.573 8.33523 56.7491 7.57955 55.056 7.23295L53.4764 6.91477C52.6639 6.73864 52.3628 6.46023 52.3685 6.03977C52.3628 5.51705 52.9537 5.17614 53.7037 5.17614C54.5446 5.17614 55.0446 5.63636 55.1639 6.19886L57.3798 6.0625Z" fill="#6B4DFF"/>
<path d="M59.7028 12.3011H62.1233V3.57386H59.7028V12.3011ZM60.9188 2.44886C61.6403 2.44886 62.2313 1.89773 62.2313 1.22159C62.2313 0.551137 61.6403 0 60.9188 0C60.2028 0 59.6119 0.551137 59.6119 1.22159C59.6119 1.89773 60.2028 2.44886 60.9188 2.44886Z" fill="#6B4DFF"/>
<path d="M69.3043 3.57386H67.6622V1.48295H65.2418V3.57386H64.0486V5.39205H65.2418V9.9375C65.2304 11.6477 66.3952 12.4943 68.1509 12.4205C68.7759 12.3977 69.219 12.2727 69.4634 12.1932L69.0827 10.392C68.9634 10.4148 68.7077 10.4716 68.4804 10.4716C67.9974 10.4716 67.6622 10.2898 67.6622 9.61932V5.39205H69.3043V3.57386Z" fill="#6B4DFF"/>
<path d="M75.3645 12.4716C77.5236 12.4716 78.9781 11.4205 79.319 9.80114L77.0804 9.65341C76.8361 10.3182 76.2111 10.6648 75.4043 10.6648C74.194 10.6648 73.427 9.86364 73.427 8.5625V8.55682H79.3702V7.89205C79.3702 4.92614 77.5747 3.46023 75.2679 3.46023C72.6997 3.46023 71.035 5.28409 71.035 7.97727C71.035 10.7443 72.677 12.4716 75.3645 12.4716ZM73.427 7.05682C73.4781 6.0625 74.2338 5.26705 75.3077 5.26705C76.3588 5.26705 77.0861 6.01705 77.0918 7.05682H73.427Z" fill="#6B4DFF"/>
<path d="M82.9645 12.4489C83.6918 12.4489 84.3224 11.8409 84.3281 11.0852C84.3224 10.3409 83.6918 9.73295 82.9645 9.73295C82.2145 9.73295 81.5952 10.3409 81.6009 11.0852C81.5952 11.8409 82.2145 12.4489 82.9645 12.4489Z" fill="#6B4DFF"/>
<path d="M90.8585 12.4716C93.1824 12.4716 94.6426 11.108 94.7562 9.10227H92.4722C92.3301 10.0341 91.7165 10.5568 90.8869 10.5568C89.7562 10.5568 89.0233 9.60796 89.0233 7.9375C89.0233 6.28977 89.7619 5.34659 90.8869 5.34659C91.7733 5.34659 92.3415 5.93182 92.4722 6.80114H94.7562C94.654 4.78409 93.1256 3.46023 90.8472 3.46023C88.1994 3.46023 86.5631 5.29545 86.5631 7.97159C86.5631 10.625 88.171 12.4716 90.8585 12.4716Z" fill="#6B4DFF"/>
<path d="M100.849 12.4716C103.497 12.4716 105.145 10.6591 105.145 7.97159C105.145 5.26705 103.497 3.46023 100.849 3.46023C98.2014 3.46023 96.5537 5.26705 96.5537 7.97159C96.5537 10.6591 98.2014 12.4716 100.849 12.4716ZM100.861 10.5966C99.6389 10.5966 99.0139 9.47727 99.0139 7.95455C99.0139 6.43182 99.6389 5.30682 100.861 5.30682C102.059 5.30682 102.684 6.43182 102.684 7.95455C102.684 9.47727 102.059 10.5966 100.861 10.5966Z" fill="#6B4DFF"/>
<path d="M107.318 12.3011H109.739V7.0625C109.739 6.09659 110.353 5.45455 111.159 5.45455C111.955 5.45455 112.489 6 112.489 6.85795V12.3011H114.836V6.97159C114.836 6.06818 115.353 5.45455 116.233 5.45455C117.006 5.45455 117.586 5.9375 117.586 6.90909V12.3011H120V6.43182C120 4.53977 118.875 3.46023 117.25 3.46023C115.972 3.46023 114.978 4.11364 114.62 5.11364H114.529C114.25 4.10227 113.358 3.46023 112.159 3.46023C110.983 3.46023 110.091 4.08523 109.728 5.11364H109.625V3.57386H107.318V12.3011Z" fill="#6B4DFF"/>
</svg>
